# xmcd
#
# Track frame offsets: 
#        150
#        21041
#        43656
#        60194
#        87639
#        103232
#        120483
#        132901
#        154470
#        174490
#
# Disc length: 2722 seconds
#
# Revision: 0
# Processed by: cddbd v1.5.1PL0 Copyright (c) Steve Scherf et al.
# Submitted via: ExactAudioCopy v0.95a5
#
DISCID=810aa00a
DTITLE=Karen Harding - Look What God Gave Me
DYEAR=2002
DGENRE=Contemporary Christian
TTITLE0=Praise His Name
TTITLE1=He'll Do It Again
TTITLE2=Thread Of Hope
TTITLE3=I Am Not Ashamed
TTITLE4=As Good As Goodby Gets
TTITLE5=Look What God Gave Me
TTITLE6=I'm Gonna Move
TTITLE7=Going Back
TTITLE8=Ordinary Baby
TTITLE9=When He Comes Down
EXTD=
EXTT0=
EXTT1=
EXTT2=
EXTT3=
EXTT4=
EXTT5=
EXTT6=
EXTT7=
EXTT8=
EXTT9=
PLAYORDER=
